<svg xmlns="http://www.w3.org/2000/svg" width="33.923" height="31.5" viewBox="0 0 33.923 31.5">
  <path id="Icon_ionic-ios-star" data-name="Icon ionic-ios-star" d="M34.886,14.279H23.747l-3.385-10.1a1.227,1.227,0,0,0-2.3,0l-3.385,10.1H3.462A1.215,1.215,0,0,0,2.25,15.49a.89.89,0,0,0,.023.2,1.164,1.164,0,0,0,.507.856L11.935,23,8.421,33.217a1.215,1.215,0,0,0,.416,1.363,1.172,1.172,0,0,0,.681.3,1.484,1.484,0,0,0,.757-.273l8.935-6.368L28.147,34.6a1.419,1.419,0,0,0,.757.273,1.088,1.088,0,0,0,.674-.3,1.2,1.2,0,0,0,.416-1.363L26.481,23,35.56,16.49l.22-.189a1.27,1.27,0,0,0,.394-.81A1.282,1.282,0,0,0,34.886,14.279Z" transform="translate(-2.25 -3.375)" fill="#f0fcf7"/>
</svg>
