<svg xmlns="http://www.w3.org/2000/svg" width="31.492" height="31.5" viewBox="0 0 31.492 31.5">
  <path id="Icon_ionic-ios-settings" data-name="Icon ionic-ios-settings" d="M33.392,20.246a4.052,4.052,0,0,1,2.6-3.781,16.063,16.063,0,0,0-1.944-4.683,4.107,4.107,0,0,1-1.648.353,4.043,4.043,0,0,1-3.7-5.691A16.014,16.014,0,0,0,24.027,4.5a4.049,4.049,0,0,1-7.561,0,16.063,16.063,0,0,0-4.683,1.944,4.043,4.043,0,0,1-3.7,5.691,3.973,3.973,0,0,1-1.648-.353A16.418,16.418,0,0,0,4.5,16.473a4.051,4.051,0,0,1,.008,7.561,16.063,16.063,0,0,0,1.944,4.683,4.045,4.045,0,0,1,5.339,5.339A16.157,16.157,0,0,0,16.473,36a4.042,4.042,0,0,1,7.545,0A16.063,16.063,0,0,0,28.7,34.056a4.049,4.049,0,0,1,5.339-5.339,16.157,16.157,0,0,0,1.944-4.683A4.072,4.072,0,0,1,33.392,20.246ZM20.32,26.8a6.561,6.561,0,1,1,6.561-6.561A6.559,6.559,0,0,1,20.32,26.8Z" transform="translate(-4.5 -4.5)" fill="#f0fcf7"/>
</svg>
