<svg xmlns="http://www.w3.org/2000/svg" width="31.498" height="31.5" viewBox="0 0 31.498 31.5">
  <path id="Icon_ionic-ios-person" data-name="Icon ionic-ios-person" d="M35.983,35.2c-.591-2.609-3.962-3.88-5.127-4.29a38.225,38.225,0,0,0-4.274-.82,4.342,4.342,0,0,1-1.977-.911c-.328-.394-.131-4.044-.131-4.044a12.167,12.167,0,0,0,.935-1.78A22.961,22.961,0,0,0,26.1,20.25s.673,0,.911-1.181c.254-1.288.656-1.788.607-2.748-.049-.943-.566-.919-.566-.919a14.382,14.382,0,0,0,.558-4.208c.074-3.371-2.568-6.694-7.35-6.694-4.848,0-7.432,3.322-7.358,6.694a15,15,0,0,0,.55,4.208s-.517-.025-.566.919c-.049.96.353,1.46.607,2.748.23,1.181.911,1.181.911,1.181a22.96,22.96,0,0,0,.689,3.109,12.167,12.167,0,0,0,.935,1.78s.2,3.65-.131,4.044a4.342,4.342,0,0,1-1.977.911,38.225,38.225,0,0,0-4.274.82c-1.165.41-4.536,1.682-5.127,4.29a.656.656,0,0,0,.648.8H35.344A.654.654,0,0,0,35.983,35.2Z" transform="translate(-4.501 -4.5)" fill="#f0fcf7"/>
</svg>
